xxxxxxxxxxxxxxxxxxxxxxxxxxxxxxxxxxxxxxxxxxxxxxxxxxxxxxxxxxxxxxxxxxxxxxxxxxxxxxxx

The Net
1995

xxxxxxxxxxxxxxxxxxxxxxxxxxxxxxxxxxxxxxxxxxxxxxxxxxxxxxxxxxxxxxxxxxxxxxxxxxxxxxxx
 
http://www.imdb.com/title/tt0113957/ 
http://en.wikipedia.org/wiki/The_Net_(1995_film)

xxxxxxxxxxxxxxxxxxxxxxxxxxxxxxxxxxxxxxxxxxxxxxxxxxxxxxxxxxxxxxxxxxxxxxxxxxxxxxxx

Angela Bennett's a software engineer type who works from home and has few
friends outside of cyberspace. Taking her first vacation in years she becomes
embroiled in a web of computer espionage.

xxxxxxxxxxxxxxxxxxxxxxxxxxxxxxxxxxxxxxxxxxxxxxxxxxxxxxxxxxxxxxxxxxxxxxxxxxxxxxxx


Sandra Bullock	 ...	Angela Bennett
Jeremy Northam	 ...	Jack Devlin
Dennis Miller	 ...	Dr. Alan Champion

xxxxxxxxxxxxxxxxxxxxxxxxxxxxxxxxxxxxxxxxxxxxxxxxxxxxxxxxxxxxxxxxxxxxxxxxxxxxxxxx

General
Format                           : MPEG-4
Format profile                   : Base Media / Version 2
Codec ID                         : mp42
File size                        : 260 MiB
Duration                         : 1h 49mn
Overall bit rate                 : 331 Kbps

Video
ID                               : 1
Format                           : AVC
Format/Info                      : Advanced Video Codec
Format profile                   : Baseline@L2.1
Format settings, CABAC           : No
Format settings, ReFrames        : 2 frames
Codec ID                         : avc1
Codec ID/Info                    : Advanced Video Coding
Duration                         : 1h 49mn
Bit rate mode                    : Variable
Bit rate                         : 280 Kbps
Width                            : 480 pixels
Height                           : 256 pixels
Display aspect ratio             : 1.875
Frame rate mode                  : Variable
Frame rate                       : 25.000 fps
Minimum frame rate               : 12.500 fps
Maximum frame rate               : 25.000 fps
Color space                      : YUV
Chroma subsampling               : 4:2:0
Bit depth                        : 8 bits
Scan type                        : Progressive
Bits/(Pixel*Frame)               : 0.091
Stream size                      : 221 MiB (85%)
Writing library                  : x264 core 79

Audio
ID                               : 2
Format                           : AAC
Format/Info                      : Advanced Audio Codec
Format profile                   : LC
Codec ID                         : 40
Duration                         : 1h 49mn
Bit rate mode                    : Variable
Bit rate                         : 48.0 Kbps
Maximum bit rate                 : 79.6 Kbps
Channel(s)                       : 2 channels
Channel positions                : Front: L R
Sampling rate                    : 24.0 KHz
Compression mode                 : Lossy
Stream size                      : 37.6 MiB (14%)

xxxxxxxxxxxxxxxxxxxxxxxxxxxxxxxxxxxxxxxxxxxxxxxxxxxxxxxxxxxxxxxxxxxxxxxxxxxxxxxx

FaCTFiCTioN ... 1. A work of fiction based in fact.
                2. A work of fiction which later becomes fact.

xxxxxxxxxxxxxxxxxxxxxxxxxxxxxxxxxxxxxxxxxxxxxxxxxxxxxxxxxxxxxxxxxxxxxxxxxxxxxxxx

272p = 272 lines of pixels in a 16:9 aspect ratio video with a 480 pixel width.

A 480x208 pixel video with an aspect ratio of 2.35:1 or a 480x352 pixel video
with an aspect ratio of 4:3 are also considered 272p.

272p m4v/mp4 format videos are easily played on PCs, Macs, smartphones, tablets,
game consoles, and portable multimedia players such as iPods, Zunes, PSPs, etc.
